<svg class="header-search-icon" width="24" height="24" xmlns="http://www.w3.org/2000/svg" version="1.1" xmlns:xlink="http://www.w3.org/1999/xlink" viewBox="0 0 24 24">
    <path d="M23.76138,23.76327c-0.30327,0.29829 -0.79502,0.29829 -1.09795,0l-6.21758,-6.1195c-1.73515,1.38426 -3.94432,2.21847 -6.3525,2.21847c-5.57442,0 -10.09277,-4.4465 -10.09277,-9.93369c0,-5.48511 4.51836,-9.93078 10.09277,-9.93078c5.5743,0 10.09266,4.44567 10.09357,9.93078c0,2.56495 -0.99678,4.89601 -2.61829,6.65791l6.19354,6.09498c0.30247,0.29787 0.30247,0.78228 -0.0008,1.08182zM18.63305,9.92855c0,-4.64051 -3.82324,-8.40361 -8.5397,-8.40361c-4.71645,0 -8.54004,3.7631 -8.54004,8.40361c0,4.64301 3.82359,8.40527 8.54004,8.40527c4.71645,0 8.5397,-3.76226 8.5397,-8.40527z" fill="#ffffff"></path>
    <path d="M23.76138,23.76327c-0.30327,0.29829 -0.79502,0.29829 -1.09795,0l-6.21758,-6.1195c-1.73515,1.38426 -3.94432,2.21847 -6.3525,2.21847c-5.57442,0 -10.09277,-4.4465 -10.09277,-9.93369c0,-5.48511 4.51836,-9.93078 10.09277,-9.93078c5.5743,0 10.09266,4.44567 10.09357,9.93078c0,2.56495 -0.99678,4.89601 -2.61829,6.65791l6.19354,6.09498c0.30247,0.29787 0.30247,0.78228 -0.0008,1.08182zM18.63305,9.92855c0,-4.64051 -3.82324,-8.40361 -8.5397,-8.40361c-4.71645,0 -8.54004,3.7631 -8.54004,8.40361c0,4.64301 3.82359,8.40527 8.54004,8.40527c4.71645,0 8.5397,-3.76226 8.5397,-8.40527z" fill="#ffffff"></path>
</svg>
